<svg width="26" height="14" viewBox="0 0 26 14" fill="none" xmlns="http://www.w3.org/2000/svg">
  <path fill-rule="evenodd" clip-rule="evenodd" d="M0 0H25.1V1.01661H0V0ZM0 2.03318H25.1V3.04979H0V2.03318ZM0 4.06378H25.1V5.08294H0V4.06378ZM0 6.09696H25.1V7.11357H0V6.09696ZM0 8.13014H25.1V9.14675H0V8.13014ZM0 10.1607H25.1V11.1773H0V10.1607ZM0 12.1939H25.1V13.2105H0V12.1939Z" fill="#BD3D44"/>
  <path fill-rule="evenodd" clip-rule="evenodd" d="M0 1.0166H25.1V2.03318H0V1.0166ZM0 3.04976H25.1V4.06377H0V3.04976ZM0 5.08038H25.1V6.09696H0V5.08038ZM0 7.11356H25.1V8.13014H0V7.11356ZM0 9.14674H25.1V10.1633H0V9.14674ZM0 11.1773H25.1V12.1939H0V11.1773Z" fill="white"/>
  <path fill-rule="evenodd" clip-rule="evenodd" d="M0 0H10.0395V7.11357H0V0Z" fill="#192F5D"/>
  <path fill-rule="evenodd" clip-rule="evenodd" d="M0.835988 0.304474L0.928874 0.585665H1.22303L0.985625 0.758558L1.07595 1.04236L0.835988 0.866912L0.598611 1.03978L0.688911 0.758558L0.448975 0.585665H0.748276L0.835988 0.304474ZM2.51053 0.304474L2.60083 0.585665H2.89755L2.65758 0.758558L2.74791 1.04236L2.51053 0.866912L2.27057 1.03978L2.36087 0.758558L2.12349 0.585665H2.41765L2.51053 0.304474ZM4.18249 0.304474L4.27538 0.585693H4.56694L4.32957 0.758586L4.41984 1.04239L4.1799 0.86694L3.94253 1.0398L4.03283 0.758586L3.79286 0.585693H4.0896L4.18249 0.304474ZM5.85703 0.304474L5.94731 0.585693H6.24405L6.00408 0.758586L6.09697 1.04239L5.85701 0.86694L5.61707 1.0398L5.70996 0.758586L5.46999 0.585693H5.76415L5.85703 0.304474ZM7.52899 0.304474L7.62188 0.585693H7.916L7.67863 0.758586L7.76893 1.04239L7.52896 0.86694L7.29159 1.0398L7.38191 0.758586L7.14454 0.585693H7.43866L7.52899 0.304474ZM9.20351 0.304474L9.29381 0.585693H9.59055L9.35058 0.758586L9.44347 1.04239L9.20351 0.86694L8.96354 1.0398L9.05643 0.758586L8.81649 0.585693H9.11321L9.20351 0.304474ZM1.67455 1.01655L1.76485 1.29782H2.06157L1.8216 1.47066L1.90934 1.75193L1.67711 1.57904L1.43718 1.75191L1.5223 1.47069L1.2901 1.2978H1.58425L1.67455 1.01655ZM3.34651 1.01655L3.4394 1.29782H3.73352L3.49356 1.47066L3.58647 1.75193L3.34648 1.57904L3.10655 1.75191L3.19943 1.47069L2.95947 1.2978H3.25618L3.34651 1.01655ZM5.02106 1.01655L5.11133 1.29782H5.40807L5.1681 1.47066L5.2584 1.75193L5.02103 1.57904L4.78109 1.75191L4.87139 1.47072L4.63401 1.29782H4.92817L5.02106 1.01655ZM6.69301 1.01655L6.7859 1.29782H7.08003L6.84006 1.47066L6.93295 1.75193L6.69298 1.57904L6.45561 1.75191L6.54593 1.47069L6.30597 1.2978H6.60527L6.69301 1.01655ZM8.36753 1.01655L8.45783 1.29782H8.75457L8.51461 1.47066L8.60491 1.75193L8.36753 1.57904L8.12757 1.75191L8.21789 1.47069L7.98052 1.2978H8.27464L8.36753 1.01655ZM0.835988 1.72617L0.928874 2.01257H1.22303L0.985625 2.18543L1.07595 2.46668L0.835988 2.29123L0.598611 2.46668L0.688911 2.18285L0.448975 2.01001H0.748276L0.835988 1.72617ZM2.51053 1.72617L2.60083 2.00993H2.89755L2.65758 2.18279L2.74791 2.46406L2.51053 2.28858L2.27057 2.46404L2.36087 2.18023L2.12349 2.00737H2.41765L2.51053 1.72617ZM4.18249 1.72617L4.27538 2.00998H4.56694L4.32957 2.18285L4.41984 2.46412L4.1799 2.28864L3.94253 2.46409L4.03283 2.18029L3.79286 2.00742H4.0896L4.18249 1.72617ZM5.85703 1.72617L5.94731 2.00998H6.24405L6.00408 2.18285L6.09697 2.46412L5.85701 2.28864L5.61707 2.46409L5.70996 2.18029L5.46999 2.00742H5.76415L5.85703 1.72617ZM7.52899 1.72617L7.62188 2.00998H7.916L7.67863 2.18282L7.76893 2.46409L7.52896 2.28861L7.29159 2.46406L7.38191 2.18026L7.14454 2.00739H7.43866L7.52899 1.72617ZM9.20351 1.72617L9.29381 2.00998H9.59055L9.35058 2.18285L9.44347 2.46412L9.20351 2.28864L8.96354 2.46409L9.05643 2.18029L8.81649 2.00742H9.11321L9.20351 1.72617ZM1.67455 2.43828L1.76485 2.71952H2.06157L1.8216 2.89236L1.91193 3.17619L1.67455 3.00074L1.43459 3.17361L1.52489 2.89239L1.28751 2.71952H1.58169L1.67455 2.43828ZM3.34651 2.43828L3.4394 2.71952H3.73352L3.49356 2.89236L3.58647 3.17619L3.34648 3.00074L3.10655 3.17361L3.19943 2.89239L2.95947 2.71952H3.25618L3.34651 2.43828ZM5.02106 2.43828L5.11133 2.71952H5.40807L5.1681 2.89236L5.2584 3.17619L5.02103 3.00074L4.78109 3.17361L4.87139 2.89239L4.63401 2.71952H4.92817L5.02106 2.43828ZM6.69301 2.43828L6.7859 2.71952H7.08003L6.84265 2.89236L6.93295 3.17619L6.69298 3.00074L6.45561 3.17361L6.54593 2.89239L6.30597 2.71952H6.60527L6.69301 2.43828ZM8.36753 2.43828L8.45783 2.71952H8.75457L8.51461 2.89236L8.60491 3.17619L8.36753 3.00074L8.12757 3.17361L8.21789 2.89239L7.98052 2.71952H8.27464L8.36753 2.43828ZM0.835988 3.15041L0.928874 3.43165H1.22303L0.985625 3.60449L1.07595 3.88832L0.835988 3.71287L0.598611 3.88574L0.688911 3.60452L0.448975 3.43165H0.748276L0.835988 3.15041ZM2.51053 3.15041L2.60083 3.43165H2.89755L2.65758 3.60449L2.74791 3.88577L2.51053 3.71287L2.27057 3.88574L2.36087 3.60452L2.12349 3.43165H2.41765L2.51053 3.15041ZM4.18249 3.15041L4.27538 3.43165H4.56694L4.32957 3.60449L4.41984 3.88832L4.1799 3.71287L3.94253 3.88574L4.03283 3.60452L3.79286 3.43165H4.0896L4.18249 3.15041ZM5.85703 3.15041L5.94731 3.43165H6.24405L6.00408 3.60449L6.09697 3.88832L5.85701 3.71287L5.61707 3.88574L5.70996 3.60452L5.46999 3.43165H5.76415L5.85703 3.15041ZM7.52899 3.15041L7.62188 3.43165H7.916L7.67863 3.60449L7.76893 3.88832L7.52896 3.71287L7.29159 3.88574L7.38191 3.60452L7.14454 3.43165H7.43866L7.52899 3.15041ZM9.20351 3.15041L9.29381 3.43165H9.59055L9.35058 3.60449L9.44347 3.88832L9.20351 3.71287L8.96354 3.88574L9.05643 3.60452L8.81649 3.43165H9.11321L9.20351 3.15041ZM1.67455 3.86254L1.76485 4.14378H2.06157L1.8216 4.31662L1.91193 4.5979L1.67455 4.42244L1.43459 4.5979L1.52489 4.31406L1.28751 4.1412H1.58169L1.67455 3.86254ZM3.34651 3.86254L3.4394 4.14378H3.73352L3.49356 4.31662L3.58647 4.5979L3.34648 4.42244L3.10655 4.5979L3.19943 4.31406L2.95947 4.1412H3.25618L3.34651 3.86254ZM5.02106 3.86254L5.11133 4.14378H5.40807L5.1681 4.31662L5.2584 4.5979L5.02103 4.42244L4.78109 4.5979L4.87139 4.31406L4.63401 4.1412H4.92817L5.02106 3.86254ZM6.69301 3.86254L6.7859 4.14378H7.08003L6.84265 4.31662L6.93295 4.5979L6.69298 4.42244L6.45561 4.5979L6.54593 4.31406L6.30597 4.1412H6.60527L6.69301 3.86254ZM8.36753 3.86254L8.45783 4.14378H8.75457L8.51461 4.31662L8.60491 4.5979L8.36753 4.42244L8.12757 4.5979L8.21789 4.31406L7.98052 4.1412H8.27464L8.36753 3.86254ZM0.835988 4.57208L0.928874 4.85591H1.22303L0.985625 5.02875L1.07595 5.30744L0.835988 5.13457L0.598611 5.30741L0.688911 5.02619L0.448975 4.85333H0.748276L0.835988 4.57208ZM2.51053 4.57208L2.60083 4.85591H2.89755L2.65758 5.02875L2.7505 5.30744L2.5105 5.13457L2.27057 5.30741L2.36345 5.02619L2.12349 4.85333H2.41765L2.51053 4.57208ZM4.18249 4.57208L4.27538 4.85591H4.56694L4.32957 5.02875L4.41984 5.30744L4.1799 5.13457L3.94253 5.30741L4.03283 5.02619L3.79286 4.85333H4.0896L4.18249 4.57208ZM5.85703 4.57208L5.94731 4.85591H6.24405L6.00408 5.02875L6.09697 5.30744L5.85701 5.13457L5.61707 5.30741L5.70996 5.02619L5.46999 4.85333H5.76415L5.85703 4.57208ZM7.52899 4.57208L7.62188 4.85591H7.916L7.67863 5.02875L7.76893 5.30744L7.52896 5.13457L7.29159 5.30741L7.38191 5.02619L7.14454 4.85333H7.43866L7.52899 4.57208ZM9.20351 4.57208L9.29381 4.85591H9.59055L9.35058 5.02875L9.44347 5.30744L9.20351 5.13457L8.96354 5.30741L9.05643 5.02619L8.81649 4.85333H9.11321L9.20351 4.57208ZM1.67455 5.28421L1.76485 5.56546H2.06157L1.8216 5.73832L1.91193 6.02215L1.67455 5.8467L1.43459 6.01954L1.52489 5.73832L1.28751 5.56546H1.58169L1.67455 5.28421ZM3.34651 5.28421L3.4394 5.56546H3.73352L3.49356 5.73832L3.58647 6.02215L3.34648 5.8467L3.10655 6.01954L3.19943 5.73832L2.95947 5.56546H3.25618L3.34651 5.28421ZM5.02106 5.28421L5.11133 5.56546H5.40807L5.1681 5.73832L5.2584 6.02215L5.02103 5.8467L4.78109 6.01954L4.87139 5.73832L4.63401 5.56546H4.92817L5.02106 5.28421ZM6.69301 5.28421L6.7859 5.56546H7.08003L6.84265 5.73832L6.93295 6.02215L6.69298 5.8467L6.45561 6.01954L6.54593 5.73832L6.30597 5.56546H6.60527L6.69301 5.28421ZM8.36753 5.28421L8.45783 5.56546H8.75457L8.51461 5.73832L8.60491 6.02215L8.36753 5.8467L8.12757 6.01954L8.21789 5.73832L7.98052 5.56546H8.27464L8.36753 5.28421ZM0.835988 5.99634L0.928874 6.27759H1.22303L0.985625 6.45045L1.07595 6.7317L0.835988 6.55883L0.598611 6.73167L0.688911 6.44786L0.448975 6.275H0.748276L0.835988 5.99634ZM2.51053 5.99634L2.60083 6.27759H2.89755L2.65758 6.45045L2.7505 6.7317L2.5105 6.55883L2.27057 6.73167L2.36345 6.44786L2.12349 6.275H2.41765L2.51053 5.99634ZM4.18249 5.99634L4.27538 6.27759H4.56694L4.33471 6.45045L4.42501 6.7317L4.18505 6.55883L3.94767 6.73167L4.038 6.44786L3.79804 6.275H4.09475L4.18249 5.99634ZM5.85703 5.99634L5.94731 6.27759H6.24405L6.00408 6.45045L6.09697 6.7317L5.85701 6.55883L5.61707 6.73167L5.70996 6.44786L5.46999 6.275H5.76415L5.85703 5.99634ZM7.52899 5.99634L7.62188 6.27759H7.916L7.67863 6.45045L7.76893 6.7317L7.52896 6.55883L7.29159 6.73167L7.38191 6.44786L7.14454 6.275H7.43866L7.52899 5.99634ZM9.20351 5.99634L9.29381 6.27759H9.59055L9.35058 6.45045L9.44347 6.7317L9.20351 6.55883L8.96354 6.73167L9.05643 6.44786L8.81649 6.275H9.11321L9.20351 5.99634Z" fill="white"/>
</svg>
  